<?xml version="1.0" standalone="no"?>
<!DOCTYPE svg PUBLIC "-//W3C//DTD SVG 20010904//EN"
 "http://www.w3.org/TR/2001/REC-SVG-20010904/DTD/svg10.dtd">
<svg version="1.0" xmlns="http://www.w3.org/2000/svg"
 width="1934.000000pt" height="1934.000000pt" viewBox="0 0 1934.000000 1934.000000"
 preserveAspectRatio="xMidYMid meet">
<metadata>
Created by potrace 1.14, written by Peter Selinger 2001-2017
</metadata>
<g transform="translate(0.000000,1934.000000) scale(0.100000,-0.100000)"
fill="#000000" stroke="none">
<path d="M19022 14128 c-40 -11 -69 -28 -155 -93 -81 -61 -334 -220 -682 -429
-143 -86 -267 -160 -275 -165 -8 -5 -64 -39 -125 -74 -60 -36 -198 -116 -305
-179 -107 -63 -262 -154 -345 -202 -82 -48 -190 -111 -240 -140 -49 -29 -198
-115 -330 -191 -132 -76 -262 -152 -290 -169 -27 -17 -52 -31 -55 -31 -3 0
-16 -8 -30 -17 -14 -9 -146 -85 -295 -171 -148 -85 -313 -179 -365 -209 -52
-30 -115 -66 -140 -80 -25 -14 -61 -35 -80 -46 -19 -12 -46 -27 -60 -35 -14
-7 -315 -179 -670 -382 -355 -202 -665 -379 -690 -393 -25 -14 -57 -33 -72
-43 -14 -11 -28 -19 -31 -19 -3 0 -47 -24 -99 -54 -51 -29 -113 -64 -138 -78
-25 -14 -94 -53 -155 -88 -60 -34 -135 -76 -165 -93 -30 -17 -88 -50 -128 -74
-41 -24 -75 -43 -76 -43 -2 0 -43 -23 -92 -51 -89 -52 -419 -239 -504 -287
-25 -13 -74 -42 -110 -62 -36 -21 -82 -47 -103 -59 -68 -38 -426 -241 -647
-366 -118 -67 -240 -135 -270 -152 -30 -17 -102 -57 -160 -90 -58 -33 -125
-71 -150 -85 -37 -21 -173 -97 -390 -221 -19 -11 -55 -31 -80 -45 -25 -14
-123 -69 -219 -124 -96 -54 -176 -98 -178 -98 -3 0 -17 -8 -31 -18 -15 -11
-57 -35 -94 -55 -37 -20 -187 -105 -335 -188 -147 -83 -288 -162 -313 -176
-25 -14 -110 -62 -190 -107 -80 -46 -179 -101 -220 -125 -41 -23 -82 -46 -90
-51 -13 -8 -311 -174 -465 -260 -110 -61 -139 -78 -228 -129 -49 -28 -90 -51
-92 -51 -2 0 -38 -21 -81 -46 -43 -25 -87 -50 -98 -55 -12 -5 -37 -19 -56 -30
-67 -40 -760 -429 -765 -429 -4 0 13 43 40 105 8 17 44 102 81 190 71 170 73
176 183 445 39 96 76 184 81 195 9 19 41 98 189 465 191 471 377 947 501 1280
142 381 387 1069 405 1140 3 8 27 87 55 175 114 358 216 743 245 917 3 18 10
56 15 83 18 96 21 131 25 275 4 164 -7 236 -53 334 -45 96 -121 162 -226 196
-176 57 -631 -108 -1174 -425 -201 -117 -759 -484 -810 -532 -7 -7 -17 -13
-22 -13 -5 0 -15 -6 -22 -13 -7 -7 -53 -42 -103 -77 -233 -166 -756 -566
-1155 -883 -96 -76 -190 -151 -209 -165 -19 -15 -104 -83 -191 -152 -86 -69
-171 -136 -189 -150 -18 -14 -61 -47 -96 -75 -204 -163 -478 -365 -494 -365
-23 0 -97 264 -136 485 -2 17 -9 55 -15 85 -5 30 -12 73 -15 95 -4 22 -8 51
-11 65 -2 14 -11 79 -19 145 -9 66 -17 134 -20 150 -2 17 -6 57 -10 90 -3 33
-10 98 -15 145 -5 47 -12 112 -15 145 -13 130 -18 152 -43 198 -24 45 -77 92
-127 112 -38 15 -105 17 -155 5 -91 -22 -182 -131 -183 -220 0 -39 12 -192 18
-230 2 -14 7 -54 10 -90 4 -36 8 -78 10 -95 2 -16 7 -57 10 -90 4 -33 8 -67
10 -75 1 -8 6 -44 10 -80 4 -36 9 -72 10 -80 1 -8 6 -40 10 -70 4 -30 9 -64
11 -75 3 -11 9 -49 14 -85 5 -36 12 -74 14 -85 2 -11 11 -60 21 -110 24 -133
80 -350 116 -451 92 -262 213 -399 382 -434 116 -24 207 7 398 132 106 70 472
340 499 368 3 3 37 30 75 60 93 73 465 367 490 389 11 9 160 126 330 259 171
134 326 255 345 271 89 70 533 400 690 512 636 454 1115 736 1466 862 82 30
78 35 62 -88 -15 -112 -17 -126 -35 -210 -2 -11 -6 -31 -9 -44 -12 -56 -66
-278 -75 -306 -5 -16 -25 -84 -43 -150 -19 -66 -53 -178 -75 -250 -23 -71 -43
-137 -46 -145 -12 -46 -178 -534 -195 -575 -4 -11 -52 -141 -105 -290 -168
-465 -445 -1179 -735 -1891 -103 -252 -211 -514 -235 -569 -7 -16 -59 -140
-115 -275 -56 -135 -108 -258 -115 -275 -7 -16 -50 -118 -95 -225 -45 -107
-90 -213 -100 -235 -110 -244 -126 -310 -95 -392 56 -145 214 -206 353 -135
54 28 318 174 482 267 41 24 242 136 445 250 204 114 404 226 445 250 151 85
239 135 440 247 113 64 222 125 243 137 50 28 82 46 292 164 99 55 217 122
263 149 45 26 84 48 86 48 2 0 54 29 116 65 62 36 114 65 116 65 1 0 53 29
115 65 61 36 113 65 115 65 2 0 167 93 194 110 8 5 38 21 65 36 28 15 131 73
230 129 99 56 270 153 380 215 110 62 225 127 255 143 30 17 88 50 128 74 41
24 75 43 77 43 2 0 54 29 116 65 61 36 113 65 114 65 2 0 76 42 166 93 90 51
171 96 179 100 8 4 31 17 50 28 19 12 116 67 215 124 263 149 276 156 322 180
23 12 48 26 55 32 7 6 38 24 68 40 30 16 141 78 245 138 105 59 210 119 235
133 25 14 158 89 295 167 138 79 266 151 285 162 19 11 118 67 220 125 102 58
204 116 227 129 22 13 166 95 320 182 153 87 285 162 293 168 8 5 67 38 130
74 63 36 122 69 130 75 8 5 31 18 50 28 43 24 1002 572 1050 601 19 11 51 29
70 39 19 11 73 42 120 69 224 131 351 203 360 203 4 0 10 3 12 8 2 4 73 47
158 96 85 49 171 98 190 109 19 11 53 30 75 42 22 13 112 65 200 117 88 52
206 121 263 154 57 32 111 64 120 69 10 6 40 23 67 39 212 123 925 545 965
571 19 12 118 73 220 135 396 242 538 345 575 420 25 50 31 155 12 203 -49
116 -180 186 -295 155z"/>
<path d="M3137 12357 c-56 -18 -95 -54 -201 -187 -206 -257 -656 -874 -656
-899 0 -5 -3 -11 -7 -13 -15 -6 -240 -355 -390 -603 -84 -139 -243 -412 -243
-418 0 -2 -22 -43 -50 -90 -57 -100 -160 -297 -250 -477 -34 -69 -66 -132 -71
-140 -5 -8 -13 -24 -18 -35 -5 -11 -30 -65 -56 -120 -98 -208 -124 -264 -185
-405 -34 -80 -66 -154 -71 -165 -4 -11 -20 -47 -34 -80 -42 -97 -205 -515
-205 -525 0 -6 -5 -18 -10 -28 -40 -68 -312 -910 -376 -1161 -2 -9 -33 -129
-68 -268 -36 -138 -67 -268 -70 -288 -4 -21 -8 -40 -10 -44 -3 -5 -43 -192
-60 -281 -33 -174 -56 -310 -66 -375 -6 -44 -13 -91 -15 -105 -36 -216 -23
-313 52 -381 62 -56 83 -64 174 -64 81 0 89 2 135 34 76 51 110 114 119 222 5
54 12 106 19 145 2 12 7 45 11 75 4 30 11 73 16 97 5 24 11 60 14 80 5 38 8
53 25 137 6 28 12 61 15 75 3 14 9 48 15 75 6 28 12 59 14 70 4 17 11 51 32
140 3 11 7 31 10 45 15 74 123 486 169 645 14 50 28 97 30 105 13 53 172 545
185 575 5 11 25 65 44 120 51 151 201 544 236 620 5 11 28 65 51 120 125 302
404 888 556 1170 194 360 344 614 565 962 91 143 159 244 338 504 8 12 31 43
50 70 19 26 42 58 52 71 110 154 440 584 459 598 4 3 16 23 27 45 31 59 37
124 18 187 -40 136 -179 208 -319 165z"/>
</g>
</svg>
